<svg id="Layer_1" data-name="Layer 1" xmlns="http://www.w3.org/2000/svg" viewBox="0 0 299.461 42.81252"><defs><style>.cls-1{fill:#fff;}</style></defs><title>tt-logo</title><path class="cls-1" d="M96.29428,44.52711V56.7664H93.85088V44.52711H89.45982V42.29046H100.683v2.23665Z" transform="translate(-25.2695 -28.59374)"/><path class="cls-1" d="M114.26967,42.29046v2.29891h-7.72489v3.8319h6.93783v2.17439h-6.93783v3.87184h7.97392V56.7664H104.10139V42.29046Z" transform="translate(-25.2695 -28.59374)"/><path class="cls-1" d="M129.79932,46.99164q0,3.584-3.12707,4.51441l3.78961,5.26035h-3.10593l-3.45834-4.86682h-3.2093V56.7664h-2.44339V42.29046h5.38487q3.31268,0,4.74112,1.11832A4.26839,4.26839,0,0,1,129.79932,46.99164Zm-3.25159,2.04987a2.57749,2.57749,0,0,0,.74711-2.06044,2.20651,2.20651,0,0,0-.76591-1.94649,5.1167,5.1167,0,0,0-2.73472-.52744h-3.10593v5.17694h3.04485A4.46587,4.46587,0,0,0,126.54773,49.04151Z" transform="translate(-25.2695 -28.59374)"/><path class="cls-1" d="M145.62265,46.99164q0,3.584-3.12707,4.51441l3.78961,5.26035h-3.10593l-3.45834-4.86682h-3.21165V56.7664h-2.44339V42.29046h5.38487q3.31268,0,4.74347,1.11832A4.27511,4.27511,0,0,1,145.62265,46.99164Zm-3.25159,2.04987a2.58461,2.58461,0,0,0,.74477-2.06044,2.20651,2.20651,0,0,0-.76591-1.94649,5.10138,5.10138,0,0,0-2.73237-.52744h-3.10828v5.17694h3.04485A4.47393,4.47393,0,0,0,142.37105,49.04151Z" transform="translate(-25.2695 -28.59374)"/><path class="cls-1" d="M156.76359,42.29046l6.37867,14.47594h-2.69243l-1.47074-3.29271h-6.93783L150.634,56.7664h-2.6102l6.37867-14.47594Zm1.24284,8.92544-2.48568-5.57047-2.46454,5.57047Z" transform="translate(-25.2695 -28.59374)"/><path class="cls-1" d="M175.60827,43.55445a4.78717,4.78717,0,0,1,1.51068,3.893,4.61862,4.61862,0,0,1-1.54122,3.85187,7.56821,7.56821,0,0,1-4.73408,1.2217h-2.56791v4.2454h-2.44339V42.29046h4.97137A7.4406,7.4406,0,0,1,175.60827,43.55445ZM173.87909,49.529a3.20121,3.20121,0,0,0,.73537-2.27776,2.36231,2.36231,0,0,0-.93272-2.1227,5.36517,5.36517,0,0,0-2.92033-.62142h-2.48568V50.3055h2.8381A3.78678,3.78678,0,0,0,173.87909,49.529Z" transform="translate(-25.2695 -28.59374)"/><path class="cls-1" d="M180.32825,42.29046h2.44339V56.7664h-2.44339Z" transform="translate(-25.2695 -28.59374)"/><path class="cls-1" d="M198.18147,53.10131V42.29046h2.44339V56.7664h-2.65249L189.7729,46.20459V56.7664h-2.44339V42.29046h2.44339Z" transform="translate(-25.2695 -28.59374)"/><path class="cls-1" d="M215.13957,44.52711V56.7664h-2.44339V44.52711h-4.38871V42.29046h11.22317v2.23665Z" transform="translate(-25.2695 -28.59374)"/><path class="cls-1" d="M222.94668,42.29046h2.44339V56.7664h-2.44339Z" transform="translate(-25.2695 -28.59374)"/><path class="cls-1" d="M236.20209,54.5509a5.10426,5.10426,0,0,0,2.17321-.42524A7.46185,7.46185,0,0,0,240.28068,52.77l1.57411,1.61522a7.24348,7.24348,0,0,1-5.57987,2.54677,7.48163,7.48163,0,0,1-5.4483-2.11213,7.67622,7.67622,0,0,1,.04229-10.72744,7.64843,7.64843,0,0,1,5.57047-2.15324,7.28217,7.28217,0,0,1,5.62216,2.48451l-1.553,1.69863a6.768,6.768,0,0,0-1.95706-1.38733,5.45727,5.45727,0,0,0-2.16381-.39353,5.14139,5.14139,0,0,0-3.68624,1.41787,4.78366,4.78366,0,0,0-1.48953,3.624,5.00332,5.00332,0,0,0,1.48013,3.68624A4.793,4.793,0,0,0,236.20209,54.5509Z" transform="translate(-25.2695 -28.59374)"/><path class="cls-1" d="M244.96072,42.29046h2.44339v7.06235l6.62771-7.06235h3.10593L251.31825,48.628,257.22,56.7664H254.3208L249.51859,50.43l-2.11448,2.27776V56.7664h-2.44339Z" transform="translate(-25.2695 -28.59374)"/><path class="cls-1" d="M270.28745,42.29046v2.29891h-7.72489v3.8319h6.93783v2.17439h-6.93783v3.87184h7.97392V56.7664H260.11917V42.29046Z" transform="translate(-25.2695 -28.59374)"/><path class="cls-1" d="M279.95765,44.52711V56.7664h-2.44339V44.52711h-4.38871V42.29046h11.22317v2.23665Z" transform="translate(-25.2695 -28.59374)"/><path class="cls-1" d="M287.76476,42.29046h2.44339V56.7664h-2.44339Z" transform="translate(-25.2695 -28.59374)"/><path class="cls-1" d="M305.618,53.10131V42.29046h2.44339V56.7664h-2.65249l-8.19947-10.56181V56.7664H294.766V42.29046h2.44339Z" transform="translate(-25.2695 -28.59374)"/><path class="cls-1" d="M322.28711,49.72519h2.44339v4.949a7.50558,7.50558,0,0,1-5.85945,2.25779,7.39143,7.39143,0,0,1-5.37547-2.11213,7.67622,7.67622,0,0,1,.04229-10.72744,7.35388,7.35388,0,0,1,5.33318-2.15324,7.57835,7.57835,0,0,1,5.19691,1.822L322.764,45.62546a5.05255,5.05255,0,0,0-1.708-1.00438,6.46578,6.46578,0,0,0-1.99935-.27958,5.14139,5.14139,0,0,0-3.68624,1.41787,5.09654,5.09654,0,0,0,3.47009,8.83264,6.26465,6.26465,0,0,0,3.4466-.89043Z" transform="translate(-25.2695 -28.59374)"/><path class="cls-1" d="M84.44451,60.987,70.30909,37.54584c-.0136-.0227-.03017-.043-.045-.06469-.01912-.02834-.03707-.05708-.05826-.08394a1.40023,1.40023,0,0,0-.13516-.14662c-.02948-.02815-.06092-.05353-.093-.07914-.02869-.02287-.05846-.044-.08882-.06455-.02652-.01807-.04978-.04012-.07768-.05644l-10.386-6.06832-3.74866-2.1948a1.4137,1.4137,0,0,0-.71413-.19361l-.00394.00025-.00394-.00025a1.4137,1.4137,0,0,0-.71413.19361l-3.74866,2.1948-10.386,6.06832c-.0279.01632-.05116.03837-.07768.05644-.03036.02053-.06013.04168-.08882.06455-.032.02561-.06349.051-.093.07914a1.40023,1.40023,0,0,0-.13516.14662c-.0212.02686-.03914.0556-.05826.08394-.01479.02174-.03135.042-.045.06469L25.47259,60.987a1.41362,1.41362,0,0,0,.49606,1.94955l14.13542,8.27612a1.4141,1.4141,0,0,0,1.42707.00079l13.42741-7.84537L68.386,71.21343a1.4141,1.4141,0,0,0,1.42707-.00079l14.13542-8.27612a1.41362,1.41362,0,0,0,.49606-1.94955ZM42.77405,38.77624l9.15281-5.35882,3.03168-1.77131,3.03168,1.77131,9.15271,5.35882L54.95855,58.98108ZM40.819,68.35575,28.63232,61.22061l12.1841-20.20526L53.0085,61.23382Zm28.27912,0L56.90859,61.23382,69.10067,41.01534l12.1841,20.20526Z" transform="translate(-25.2695 -28.59374)"/><polygon class="cls-1" points="15.549 17.69 23.042 30.116 15.549 34.494 8.059 30.109 15.549 17.69"/><polygon class="cls-1" points="43.825 17.69 51.319 30.116 43.825 34.494 36.336 30.109 43.825 17.69"/><polygon class="cls-1" points="29.691 25.122 22.198 12.696 29.691 8.318 37.18 12.702 29.691 25.122"/></svg>