<svg id="Layer_1" data-name="Layer 1" xmlns="http://www.w3.org/2000/svg" viewBox="0 0 173.51855 50.53596"><defs><style>.cls-1{fill:#ffffff;}</style></defs><title>tt-logo-text-bottom-white</title><path class="cls-1" d="M93.28076,66.11954v9.02637H91.479V66.11954H88.24072V64.46915H96.519v1.65039Z" transform="translate(-88.24072 -24.73202)"/><path class="cls-1" d="M106.5376,64.46915v1.69629h-5.69629v2.8252h5.11621v1.60352h-5.11621V73.4506h5.87988v1.69531H99.03857V64.46915Z" transform="translate(-88.24072 -24.73202)"/><path class="cls-1" d="M117.99268,67.93692A3.09847,3.09847,0,0,1,115.687,71.266l2.79492,3.87988h-2.291l-2.55078-3.58984h-2.36719v3.58984h-1.80273V64.46915h3.9707a5.75186,5.75186,0,0,1,3.498.8252A3.15089,3.15089,0,0,1,117.99268,67.93692Zm-2.39746,1.51172a1.90448,1.90448,0,0,0,.5498-1.51953,1.62508,1.62508,0,0,0-.56543-1.43555,3.75864,3.75864,0,0,0-2.01562-.38965h-2.291v3.81836h2.24512A3.30594,3.30594,0,0,0,115.59521,69.44864Z" transform="translate(-88.24072 -24.73202)"/><path class="cls-1" d="M129.66162,67.93692A3.09847,3.09847,0,0,1,127.356,71.266l2.79492,3.87988h-2.291l-2.55078-3.58984h-2.36719v3.58984h-1.80273V64.46915h3.9707a5.75186,5.75186,0,0,1,3.498.8252A3.1509,3.1509,0,0,1,129.66162,67.93692Zm-2.39746,1.51172a1.90448,1.90448,0,0,0,.5498-1.51953,1.62508,1.62508,0,0,0-.56543-1.43555,3.75864,3.75864,0,0,0-2.01562-.38965h-2.291v3.81836H125.187A3.30594,3.30594,0,0,0,127.26416,69.44864Z" transform="translate(-88.24072 -24.73202)"/><path class="cls-1" d="M137.87842,64.46915l4.7041,10.67676h-1.98535l-1.084-2.42871H134.396l-1.03809,2.42871h-1.9248l4.7041-10.67676Zm.916,6.583-1.832-4.1084-1.81738,4.1084Z" transform="translate(-88.24072 -24.73202)"/><path class="cls-1" d="M151.77686,65.40177a3.531,3.531,0,0,1,1.11523,2.87109,3.406,3.406,0,0,1-1.1377,2.84082,5.58118,5.58118,0,0,1-3.49023.90137h-1.89355v3.13086h-1.80273V64.46915h3.666A5.48472,5.48472,0,0,1,151.77686,65.40177ZM150.50146,69.808a2.35813,2.35813,0,0,0,.542-1.68066,1.74069,1.74069,0,0,0-.68652-1.56543,3.96362,3.96362,0,0,0-2.1543-.458h-1.832v4.27637h2.0918A2.78776,2.78776,0,0,0,150.50146,69.808Z" transform="translate(-88.24072 -24.73202)"/><path class="cls-1" d="M155.25928,64.46915H157.062V75.14591h-1.80273Z" transform="translate(-88.24072 -24.73202)"/><path class="cls-1" d="M168.42432,72.44181V64.46915h1.80273V75.14591H168.272l-6.04785-7.79v7.79h-1.80273V64.46915h1.80273Z" transform="translate(-88.24072 -24.73202)"/><path class="cls-1" d="M180.93408,66.11954v9.02637h-1.80273V66.11954h-3.23828V64.46915h8.27832v1.65039Z" transform="translate(-88.24072 -24.73202)"/><path class="cls-1" d="M186.69189,64.46915h1.80176V75.14591h-1.80176Z" transform="translate(-88.24072 -24.73202)"/><path class="cls-1" d="M196.46631,73.51114a3.78156,3.78156,0,0,0,1.60352-.3125,5.5431,5.5431,0,0,0,1.40527-1.001l1.16113,1.19141A5.34286,5.34286,0,0,1,196.52,75.268a5.521,5.521,0,0,1-4.01758-1.55762,5.66218,5.66218,0,0,1,.03125-7.91211,5.63939,5.63939,0,0,1,4.1084-1.58789,5.37293,5.37293,0,0,1,4.14648,1.832l-1.14551,1.25293a4.99969,4.99969,0,0,0-1.44336-1.02344,4.04419,4.04419,0,0,0-1.5957-.29,3.79107,3.79107,0,0,0-2.71875,1.0459,3.527,3.527,0,0,0-1.09961,2.67285,3.68665,3.68665,0,0,0,1.0918,2.71875A3.53466,3.53466,0,0,0,196.46631,73.51114Z" transform="translate(-88.24072 -24.73202)"/><path class="cls-1" d="M202.92725,64.46915H204.729v5.209l4.8877-5.209h2.291l-4.292,4.67383,4.35254,6.00293h-2.1377l-3.54395-4.67383L204.729,72.15177v2.99414h-1.80176Z" transform="translate(-88.24072 -24.73202)"/><path class="cls-1" d="M221.60693,64.46915v1.69629h-5.69727v2.8252h5.11621v1.60352h-5.11621V73.4506h5.87988v1.69531h-7.68262V64.46915Z" transform="translate(-88.24072 -24.73202)"/><path class="cls-1" d="M228.73877,66.11954v9.02637H226.937V66.11954h-3.23828V64.46915h8.27832v1.65039Z" transform="translate(-88.24072 -24.73202)"/><path class="cls-1" d="M234.49658,64.46915h1.80273V75.14591h-1.80273Z" transform="translate(-88.24072 -24.73202)"/><path class="cls-1" d="M247.6626,72.44181V64.46915h1.80176V75.14591h-1.95508l-6.04785-7.79v7.79h-1.80273V64.46915h1.80273Z" transform="translate(-88.24072 -24.73202)"/><path class="cls-1" d="M259.95654,69.95255h1.80273v3.65039a5.54145,5.54145,0,0,1-4.32227,1.665,5.45091,5.45091,0,0,1-3.96387-1.55762,5.66339,5.66339,0,0,1,.03027-7.91211,5.42593,5.42593,0,0,1,3.93359-1.58789,5.59343,5.59343,0,0,1,3.833,1.34375l-.96191,1.375a3.76244,3.76244,0,0,0-1.25977-.74121,4.76727,4.76727,0,0,0-1.47461-.20605,3.7943,3.7943,0,0,0-2.71875,1.0459,3.75875,3.75875,0,0,0,2.55859,6.51465,4.61764,4.61764,0,0,0,2.543-.65723Z" transform="translate(-88.24072 -24.73202)"/><path class="cls-1" d="M196.74668,48.62289,186.32143,31.33443c-.01-.01674-.02225-.03168-.03315-.04771-.01411-.0209-.02734-.0421-.043-.06191a1.0327,1.0327,0,0,0-.09968-.10813c-.02174-.02076-.04493-.03948-.06856-.05837-.02116-.01687-.04312-.03246-.06551-.0476-.01956-.01332-.03672-.02959-.05729-.04162l-7.65993-4.47554-2.76474-1.61872a1.04264,1.04264,0,0,0-.52669-.1428L175,24.7322l-.00291-.00018a1.04264,1.04264,0,0,0-.52669.1428l-2.76474,1.61872-7.65993,4.47554c-.02058.012-.03773.0283-.05729.04162-.02239.01514-.04435.03074-.06551.0476-.02363.01889-.04682.03761-.06856.05837a1.0327,1.0327,0,0,0-.09968.10813c-.01563.01981-.02886.041-.043.06191-.01091.016-.02312.031-.03315.04771L153.25332,48.62289a1.04258,1.04258,0,0,0,.36586,1.43785l10.42525,6.10386a1.04294,1.04294,0,0,0,1.0525.00058L175,50.379l9.90307,5.78617a1.04294,1.04294,0,0,0,1.0525-.00058l10.42525-6.10386a1.04258,1.04258,0,0,0,.36586-1.43785Zm-30.73307-16.381,6.75044-3.95227L175,26.98322l2.23595,1.30639,6.75037,3.95227L175,47.1435ZM164.5717,54.05756l-8.988-5.26236,8.9861-14.90192,8.992,14.91166Zm20.85661,0-8.9901-5.25261,8.992-14.91166,8.9861,14.90192Z" transform="translate(-88.24072 -24.73202)"/><polygon class="cls-1" points="76.33 13.047 81.857 22.211 76.33 25.44 70.807 22.206 76.33 13.047"/><polygon class="cls-1" points="97.185 13.047 102.712 22.211 97.185 25.44 91.661 22.206 97.185 13.047"/><polygon class="cls-1" points="86.761 18.528 81.234 9.364 86.761 6.134 92.284 9.368 86.761 18.528"/></svg>
